:FULLY-SPECIFIED
:FORCE-ALL-JOINTS-BE-3DOF
:DEGREES
816
root -3.94565 14.7432 -40.3571 27.2145 -73.8694 -17.8937
lfemur -70.0809 20.3414 -22.96
ltibia 86.763 -0 0
lfoot -7.65957 9.30141 -0.0282652
ltoes -15.3907 0 0
rfemur -33.1421 -9.54043 22.8813
rtibia 71.8107 -0 0
rfoot -32.8576 -27.0669 0.0238777
rtoes -22.2076 0 0
lowerback 18.1965 0.474401 4.57368
upperback 0.277473 1.64867 1.28776
thorax -9.85272 0.571912 -1.62143
lowerneck -2.2367 12.8519 5.09351
upperneck -1.49017 17.095 -9.02789
head 1.23709 8.5071 -3.28372
lclavicle 3.2093e-15 6.58447e-15 -2.62644e-31
lhumerus 103.35 -34.5124 20.3043
lradius 99.6263 -0 0
lwrist 16.0614 0 0
lhand -9.73509 23.5891 -0.0464714
lfingers 7.12502 -0 0
lthumb 16.2373 52.8953 -0.0492016
rclavicle 3.2093e-15 6.58447e-15 -2.62644e-31
rhumerus 25.909 39.6391 -57.9772
rradius 65.7739 -0 0
rwrist -9.81786 0 0
rhand -12.78 -40.0584 0.0283146
rfingers 7.12502 -0 0
rthumb 13.2991 -69.5501 0.0500851
817
root -3.8466 14.7558 -40.3865 26.3571 -73.3295 -16.9599
lfemur -70.1961 20.4024 -23.2825
ltibia 87.0385 -0 0
lfoot -7.76985 9.45343 -0.0186834
ltoes -15.4096 0 0
rfemur -33.5108 -9.6165 23.1275
rtibia 71.8616 -0 0
rfoot -32.966 -27.1976 0.0157834
rtoes -22.1345 0 0
lowerback 18.2551 0.443927 4.62644
upperback 0.290575 1.6202 1.25095
thorax -9.86804 0.553978 -1.68579
lowerneck -2.21869 12.927 5.14005
upperneck -1.53901 17.1931 -9.14097
head 1.23727 8.55722 -3.32306
lclavicle 3.56316e-15 7.02642e-15 -1.73617e-31
lhumerus 104.49 -34.6838 18.7729
lradius 100.92 -0 0
lwrist 17.1087 0 0
lhand -9.46576 23.4873 -0.0307158
lfingers 7.12502 -0 0
lthumb 16.4971 52.7835 -0.0325204
rclavicle 3.56316e-15 7.02642e-15 -1.73617e-31
rhumerus 27.297 39.7279 -57.418
rradius 65.368 -0 0
rwrist -9.32508 0 0
rhand -13.1131 -40.1084 0.0187141
rfingers 7.12502 -0 0
rthumb 12.9802 -69.6425 0.0331031
818
root -3.76746 14.7658 -40.41 25.7127 -72.8955 -16.2544
lfemur -70.2884 20.4508 -23.5404
ltibia 87.2586 -0 0
lfoot -7.85795 9.57488 -0.0108172
ltoes -15.4248 0 0
rfemur -33.8055 -9.67612 23.3246
rtibia 71.9023 -0 0
rfoot -33.0526 -27.3021 0.00913827
rtoes -22.0761 0 0
lowerback 18.3019 0.419539 4.66857
upperback 0.301055 1.59747 1.22153
thorax -9.88027 0.539637 -1.7372
lowerneck -2.20426 12.9871 5.17727
upperneck -1.5782 17.2714 -9.23142
head 1.23739 8.59726 -3.35449
lclavicle 3.84588e-15 7.37953e-15 -1.00524e-31
lhumerus 105.407 -34.8027 17.5445
lradius 101.953 -0 0
lwrist 17.9454 0 0
lhand -9.25058 23.406 -0.0177828
lfingers 7.12502 -0 0
lthumb 16.7047 52.6943 -0.0188277
rclavicle 3.84588e-15 7.37953e-15 -1.00524e-31
rhumerus 28.408 39.7913 -56.9688
rradius 65.0438 -0 0
rwrist -8.93128 0 0
rhand -13.3791 -40.1483 0.0108341
rfingers 7.12502 -0 0
rthumb 12.7254 -69.7162 0.0191644
819
root -3.70944 14.7731 -40.4273 25.2614 -72.5759 -15.7584
lfemur -70.3562 20.4859 -23.7296
ltibia 87.42 -0 0
lfoot -7.92254 9.66392 -0.0049313
ltoes -15.4359 0 0
rfemur -34.0218 -9.7192 23.4693
rtibia 71.9321 -0 0
rfoot -33.116 -27.3787 0.00416591
rtoes -22.0333 0 0
lowerback 18.3362 0.401637 4.69945
upperback 0.308747 1.58081 1.19996
thorax -9.88922 0.529116 -1.77489
lowerneck -2.19365 13.0311 5.20458
upperneck -1.60703 17.3288 -9.29779
head 1.23747 8.62661 -3.37754
lclavicle 4.05317e-15 7.63842e-15 -4.58272e-32
lhumerus 106.081 -34.8796 16.6413
lradius 102.711 -0 0
lwrist 18.5589 0 0
lhand -9.09281 23.3464 -0.00810646
lfingers 7.12502 -0 0
lthumb 16.8569 52.6288 -0.00858278
rclavicle 4.05317e-15 7.63842e-15 -4.58272e-32
rhumerus 29.2236 39.8336 -56.6382
rradius 64.8061 -0 0
rwrist -8.64267 0 0
rhand -13.5742 -40.1776 0.00493873
rfingers 7.12502 -0 0
rthumb 12.5385 -69.7702 0.0087361
820
root -3.67374 14.7777 -40.4379 24.9923 -72.3787 -15.4617
lfemur -70.398 20.5075 -23.846
ltibia 87.5194 -0 0
lfoot -7.96227 9.7187 -0.00126003
ltoes -15.4428 0 0
rfemur -34.1549 -9.74544 23.5584
rtibia 71.9504 -0 0
rfoot -33.1551 -27.4258 0.00106446
rtoes -22.007 0 0
lowerback 18.3573 0.390614 4.71844
upperback 0.313482 1.57055 1.18669
thorax -9.89472 0.52264 -1.79808
lowerneck -2.18711 13.0582 5.22138
upperneck -1.6248 17.3641 -9.33866
head 1.23751 8.64467 -3.39172
lclavicle 4.1807e-15 7.7977e-15 -1.17098e-32
lhumerus 106.497 -34.9225 16.0847
lradius 103.177 -0 0
lwrist 18.9364 0 0
lhand -8.99575 23.3098 -0.0020713
lfingers 7.12502 -0 0
lthumb 16.9505 52.5886 -0.002193
rclavicle 4.1807e-15 7.7977e-15 -1.17098e-32
rhumerus 29.7257 39.8578 -56.4344
rradius 64.6599 -0 0
rwrist -8.46508 0 0
rhand -13.6943 -40.1956 0.00126189
rfingers 7.12502 -0 0
rthumb 12.4236 -69.8035 0.00223215
821
root -3.66157 14.7792 -40.4415 384.902 -72.3114 344.638
lfemur -70.4123 20.5148 -23.8857
ltibia 87.5532 0 0
lfoot -7.97581 9.73737 0
ltoes -15.4451 0 0
rfemur -34.2003 -9.75434 23.5888
rtibia 71.9567 0 0
rfoot -33.1684 -27.4419 0
rtoes -21.998 0 0
lowerback 18.3645 0.386855 4.72491
upperback 0.315096 1.56706 1.18217
thorax -9.8966 0.520432 -1.80598
lowerneck -2.18488 13.0674 5.22711
upperneck -1.63087 17.3761 -9.35259
head 1.23752 8.65083 -3.39655
lclavicle 4.22417e-15 7.85199e-15 0
lhumerus 106.639 -34.9364 15.8949
lradius 103.336 0 0
lwrist 19.065 0 0
lhand -8.96267 23.2973 0
lfingers 7.12502 0 0
lthumb 16.9824 52.5749 0
rclavicle 4.22417e-15 7.85199e-15 0
rhumerus 29.8969 39.8657 -56.3648
rradius 64.61 0 0
rwrist -8.40454 0 0
rhand -13.7352 -40.2017 0
rfingers 7.12502 0 0
rthumb 12.3844 -69.8148 0
822
root -3.65818 14.7792 -40.4371 24.8273 -72.2529 -15.3027
lfemur -70.3628 20.5244 -23.832
ltibia 87.4829 -0 0
lfoot -7.94773 9.73119 -0.000866359
ltoes -15.4421 0 0
rfemur -34.1605 -9.76315 23.567
rtibia 71.9404 -0 0
rfoot -33.15 -27.4435 -0.000143962
rtoes -21.9962 0 0
lowerback 18.3592 0.389828 4.719
upperback 0.313186 1.56962 1.18301
thorax -9.89588 0.522037 -1.80224
lowerneck -2.19147 13.0599 5.22037
upperneck -1.61779 17.3668 -9.33913
head 1.24066 8.64578 -3.39126
lclavicle 4.0931e-15 7.84222e-15 -6.35512e-33
lhumerus 106.423 -34.9686 16.0117
lradius 103.23 -0 0
lwrist 18.9977 0 0
lhand -9.0184 23.3222 -0.00711267
lfingers 7.12502 -0 0
lthumb 16.9286 52.6003 -0.00697802
rclavicle 4.0931e-15 7.84222e-15 -6.35512e-33
rhumerus 29.6923 39.8859 -56.4601
rradius 64.695 -0 0
rwrist -8.49807 0 0
rhand -13.7291 -40.173 0.000875345
rfingers 7.12502 -0 0
rthumb 12.3903 -69.7857 0.000855598
